<?xml version="1.0" standalone="no"?>
<!DOCTYPE svg PUBLIC "-//W3C//DTD SVG 20010904//EN"
 "http://www.w3.org/TR/2001/REC-SVG-20010904/DTD/svg10.dtd">
<svg version="1.0" xmlns="http://www.w3.org/2000/svg"
 width="452.000000pt" height="452.000000pt" viewBox="0 0 452.000000 452.000000"
 preserveAspectRatio="xMidYMid meet">
<metadata>
Created by potrace 1.11, written by Peter Selinger 2001-2013
</metadata>
<g transform="translate(0.000000,452.000000) scale(0.100000,-0.100000)"
fill="#000000" stroke="none">
<path d="M930 4232 c-113 -30 -212 -101 -267 -193 -44 -74 -304 -765 -299
-794 10 -55 51 -87 101 -79 12 2 130 57 262 124 133 66 245 120 250 120 4 0
62 -54 128 -120 65 -66 126 -121 135 -121 8 -1 24 -2 35 -1 11 0 131 55 267
123 l248 123 123 -122 c68 -67 132 -123 143 -123 10 -1 26 -2 35 -2 8 0 125
55 259 122 133 66 246 121 251 121 4 0 62 -54 129 -120 67 -66 126 -120 133
-121 7 0 22 -2 35 -3 52 -6 71 31 222 434 79 212 152 397 161 411 38 55 128
72 185 35 53 -36 62 -80 60 -306 l-2 -205 -178 -425 c-98 -234 -185 -441 -193
-460 -8 -19 -19 -44 -23 -55 -5 -11 -19 -42 -31 -70 l-23 -50 -2 -990 c-1
-545 -3 -1000 -3 -1012 l-1 -22 -1264 0 -1263 0 0 986 -1 985 110 261 c60 144
127 304 149 356 22 51 38 95 36 98 -3 2 -58 -22 -122 -55 l-117 -58 -117 -275
-116 -274 0 -1077 0 -1077 23 -23 23 -23 1822 -3 c1002 -1 1837 0 1855 3 22 4
39 16 52 37 17 29 18 73 17 1102 -2 837 -5 1075 -14 1091 -7 11 -94 216 -193
455 -100 239 -195 467 -212 505 l-31 70 -2 230 c-1 132 -7 244 -13 263 -26 79
-99 158 -181 196 l-46 21 -1235 2 c-1135 2 -1240 1 -1300 -15z m2165 -190 c-7
-15 -60 -153 -118 -307 -58 -154 -109 -288 -112 -298 -6 -15 -25 -1 -109 82
-88 85 -107 98 -132 96 -17 -1 -139 -57 -272 -124 -133 -66 -245 -121 -250
-121 -4 0 -63 54 -129 120 -67 66 -126 121 -132 121 -6 1 -21 2 -33 3 -13 1
-133 -54 -268 -121 -134 -68 -249 -123 -255 -123 -5 0 -62 53 -125 116 -63 64
-125 120 -137 124 -31 13 -58 3 -242 -89 -89 -45 -161 -78 -160 -73 2 5 44
117 94 248 86 228 92 241 141 291 86 87 5 81 1201 82 l1051 0 -13 -27z m552
-827 c11 -27 90 -217 175 -421 l155 -370 -1 -985 -1 -984 -354 -2 c-213 -2
-357 1 -361 7 -3 5 -5 451 -4 992 l1 983 170 405 c93 223 173 414 177 424 8
24 17 14 43 -49z"/>
<path d="M1133 1978 c-47 -23 -48 -34 -48 -542 l0 -476 28 -27 27 -28 653 -1
c689 -1 702 0 726 44 8 14 11 176 11 501 l0 480 -24 28 -24 28 -664 2 c-453 1
-670 -2 -685 -9z m1217 -531 l0 -362 -532 1 c-293 1 -537 2 -543 3 -6 1 -9
123 -9 348 1 192 2 354 3 361 1 9 116 12 541 12 l540 0 0 -363z"/>
</g>
</svg>
