<svg height="512pt" viewBox="-61 0 512 512.0005" width="512pt" xmlns="http://www.w3.org/2000/svg"><path d="m120 105c0 8.285156-6.714844 15-15 15s-15-6.714844-15-15 6.714844-15 15-15 15 6.714844 15 15zm0 0"/><path d="m0 257c0 8.285156 6.714844 15 15 15h16.757812l28.359376 226.859375c.9375 7.507813 7.316406 13.140625 14.882812 13.140625h240c7.566406 0 13.945312-5.632812 14.882812-13.140625l28.359376-226.859375h16.757812c8.285156 0 15-6.714844 15-15s-6.714844-15-15-15h-15v-137c0-8.285156-6.714844-15-15-15h-45v-45c0-8.285156-6.714844-15-15-15h-60c-8.285156 0-15 6.714844-15 15v105h-30.4375c-5.527344-95.3125-62.355469-144.328125-64.894531-146.46875-5.585938-4.707031-13.75-4.707031-19.335938 0-2.667969 2.25-65.332031 56.292969-65.332031 161.46875 0 23.292969 3.191406 50.070312 9.101562 77h-24.101562c-8.285156 0-15 6.714844-15 15zm328.007812 15-7.5 60h-65.507812c-14.0625-18.695312-36.324219-30-60-30s-45.9375 11.304688-60 30h-65.507812l-7.5-60zm-254.765624 90h69.785156c5.355468 0 10.304687-2.851562 12.984375-7.488281 8.03125-13.886719 22.972656-22.511719 38.988281-22.511719s30.957031 8.625 38.988281 22.511719c2.683594 4.636719 7.628907 7.488281 12.984375 7.488281h69.785156l-3.75 30h-66.035156c-5.351562 0-10.300781 2.855469-12.984375 7.488281-8.03125 13.886719-22.972656 22.511719-38.988281 22.511719s-30.957031-8.625-38.988281-22.511719c-2.679688-4.632812-7.628907-7.488281-12.984375-7.488281h-66.035156zm15 120-7.5-60h54.257812c14.0625 18.695312 36.324219 30 60 30s45.9375-11.304688 60-30h54.257812l-7.5 60zm241.757812-362v122h-30v-122zm-60-60v182h-30v-182zm-60 182h-39.101562c4.675781-21.316406 7.640624-42.527344 8.679687-62h30.421875zm-105-205.464844c21.664062 25.199219 38.023438 59.972656 43.175781 99.78125-12.582031 8.859375-27.648437 13.683594-43.175781 13.683594s-30.59375-4.824219-43.171875-13.683594c5.164063-39.902344 21.566406-74.648437 43.171875-99.78125zm-44.949219 133.355469c13.941407 6.601563 29.28125 10.109375 44.949219 10.109375 15.671875 0 31.007812-3.507812 44.949219-10.109375-.449219 21.914063-3.875 47-9.816407 72.109375h-70.265624c-5.941407-25.109375-9.367188-50.195312-9.816407-72.109375zm0 0"/></svg>