<svg id="outline_explan" enable-background="new 0 0 512 512" height="512" viewBox="0 0 512 512" width="512" xmlns="http://www.w3.org/2000/svg"><path d="m339.787 394.063-13.645-8.355c-5.957 9.728-13.11 18.793-21.262 26.944-12.303 12.302-26.478 22.179-42.133 29.357-26.692 12.249-56.176 16.095-85.257 11.121-29.722-5.082-56.742-19.079-78.142-40.478-27.45-27.45-42.568-63.946-42.568-102.767 0-38.82 15.118-75.316 42.568-102.766 7.585-7.585 15.976-14.318 24.939-20.012l-8.578-13.506c-9.952 6.321-19.263 13.792-27.676 22.204-30.472 30.472-47.254 70.986-47.254 114.08s16.782 83.608 47.254 114.08c23.755 23.754 53.755 39.293 86.76 44.936 9.159 1.566 18.35 2.343 27.5 2.343 23.092 0 45.903-4.955 67.124-14.693 17.387-7.971 33.124-18.935 46.775-32.586 9.043-9.04 16.981-19.101 23.595-29.902z"/><path d="m304.881 207.119c21.4 21.4 35.397 48.421 40.479 78.143 4.973 29.084 1.127 58.565-11.121 85.257l14.543 6.673c13.597-29.632 17.867-62.354 12.35-94.626-5.643-33.004-21.182-63.005-44.936-86.759-48.273-48.273-122.074-60.946-183.644-31.532l6.896 14.438c55.463-26.5 121.945-15.082 165.433 28.406z"/><path d="m378.92 384.866c14.384-33.894 18.688-70.937 12.437-107.496-5.978-34.969-21.292-67.105-44.53-93.684 23.426-19.671 37.173-48.837 37.173-79.686 0-57.346-46.654-104-104-104-20.592 0-39.804 6.016-55.974 16.381-2.717-.253-5.406-.381-8.026-.381-48.523 0-88 39.477-88 88 0 9.283 1.424 18.351 4.241 27.056-1.699.661-3.39 1.347-5.074 2.059l-4.249-4.249c-28.071-28.072-73.748-28.074-101.823 0-13.603 13.603-21.095 31.684-21.095 50.911s7.492 37.308 21.096 50.912l4.248 4.249c-29.528 69.89-15.86 153.845 41.006 210.712 28.271 28.27 63.974 46.762 103.251 53.477 10.9 1.864 21.839 2.789 32.729 2.789 25.635 0 50.978-5.131 74.766-15.226l4.215 4.215c13.604 13.603 31.685 21.095 50.912 21.095s37.308-7.492 50.912-21.096c28.072-28.072 28.072-73.75 0-101.823zm-186.895-282.957c.257-10.859 2.512-21.42 6.521-31.219.028-.068.056-.135.083-.202.034-.083.069-.167.104-.25 13.267-31.816 44.698-54.238 81.267-54.238 48.523 0 88 39.477 88 88 0 26.432-11.931 51.406-32.215 68.058-12.226-11.862-25.652-21.773-39.885-29.733-.018-.01-1.357-.752-1.382-.766-28.12-15.451-59.843-23.684-92.403-23.684-2.988 0-5.992.069-8.992.209-.318-2.1-.587-4.335-.781-6.693-.277-3.387-.36-6.561-.317-9.482zm-14.876 17.589c-10.091 1.32-20.06 3.433-29.787 6.315-2.233-7.02-3.362-14.329-3.362-21.813 0-35.616 25.996-65.274 60.009-71.001-8.797 9.416-15.735 20.347-20.505 32.209-4.541 11.255-7.167 23.481-7.473 36.271-.148 2.83-.161 6.01.072 9.472.211 3.122.59 5.984 1.046 8.547zm-114.268 58.181c-12.006 12.631-22.147 26.676-30.261 41.906l-.21-.21c-10.582-10.581-16.41-24.644-16.41-39.598s5.828-29.017 16.41-39.598c10.917-10.917 25.257-16.375 39.597-16.375 14.341 0 28.681 5.458 39.599 16.376l.21.21c-15.939 8.491-30.581 19.203-43.661 31.949zm17.276 5.31c56.552-54.381 140.797-63.518 206.653-27.407.044.024.484.266.659.363 14.185 7.873 27.359 17.755 39.096 29.492.91.91 1.811 1.83 2.702 2.76.044.046.088.091.133.135 24.318 25.438 40.26 57.068 46.187 91.733 6.021 35.22 1.364 70.922-13.47 103.248-6.294 12.746-16.616 30.082-33.16 47.383-19.463 20.353-39.614 32.371-53.415 39.189-32.322 14.835-68.025 19.492-103.245 13.47-35.994-6.154-68.718-23.104-94.633-49.02-67.546-67.545-68.605-176.786-3.179-245.64zm291.408 217.282c.015-.029.031-.057.046-.086l.21.21c21.834 21.834 21.834 57.361-.001 79.196-10.582 10.581-24.644 16.409-39.597 16.409s-29.016-5.828-39.598-16.409l-.211-.21c12.219-6.092 29.764-16.605 46.977-34.077 16.263-16.506 26.242-33.148 32.174-45.033z"/><path d="m131.623 331.821c-2.479-1.436-5.535-1.434-8.014 0-12.332 7.137-19.993 20.407-19.993 34.633s7.661 27.497 19.993 34.632c1.239.717 2.623 1.076 4.007 1.076s2.768-.358 4.007-1.076c12.332-7.137 19.993-20.407 19.993-34.632s-7.661-27.496-19.993-34.633zm-4.007 52.506c-5.021-4.509-8-11.006-8-17.873s2.979-13.364 8-17.874c5.021 4.51 8 11.007 8 17.874 0 6.866-2.978 13.363-8 17.873z"/><path d="m321.6 295.524c-7.136-12.332-20.406-19.993-34.632-19.993s-27.496 7.661-34.632 19.993c-1.435 2.479-1.435 5.535 0 8.014 7.136 12.332 20.406 19.993 34.632 19.993s27.496-7.661 34.632-19.993c1.434-2.478 1.434-5.535 0-8.014zm-34.632 12.007c-6.866 0-13.364-2.979-17.873-8 4.509-5.021 11.007-8 17.873-8s13.364 2.979 17.873 8c-4.509 5.022-11.007 8-17.873 8z"/><path d="m118.719 240.363c-9.608 1.372-17.952 7.767-21.777 16.688l-3.98 9.289c-3.075 7.176-3.005 15.377.193 22.5s9.281 12.624 16.689 15.093l6.335 2.111h-.001c2.916.972 5.915 1.452 8.894 1.452 5.36 0 10.656-1.553 15.286-4.581 7.202-4.71 11.78-12.328 12.56-20.899l1.081-11.891c.78-8.579-2.354-16.901-8.599-22.834s-14.713-8.637-23.245-7.419zm7.419 15.226c3.054 0 5.986 1.16 8.241 3.302 2.677 2.542 4.02 6.109 3.686 9.786l-1.081 11.891c-.334 3.673-2.297 6.938-5.384 8.957-3.086 2.019-6.863 2.508-10.361 1.341h-.001l-6.334-2.111c-3.222-1.074-5.762-3.371-7.153-6.469s-1.42-6.522-.082-9.643l3.979-9.288c1.64-3.824 5.216-6.564 9.333-7.153l3.437-.491c.574-.082 1.149-.122 1.72-.122z"/><path d="m230.675 263.455c2.271 0 4.577-.277 6.875-.851l9.328-2.332c7.256-1.814 13.371-6.345 17.219-12.758s4.968-13.941 3.154-21.196l-3.553-14.211c-2.514-10.053-10.32-17.859-20.373-20.373l-13.265-3.316c-7.501-1.874-15.231-.631-21.764 3.504-6.534 4.135-10.967 10.587-12.483 18.168l-.325 1.627c-1.115 5.58-.521 11.292 1.72 16.52l7.814 18.233c4.511 10.523 14.675 16.985 25.653 16.985zm-19.497-48.601.325-1.626c.649-3.249 2.55-6.015 5.35-7.787 1.949-1.233 4.146-1.867 6.386-1.867.979 0 1.965.121 2.941.365l13.265 3.316c4.309 1.077 7.654 4.423 8.731 8.731l3.553 14.211c.777 3.109.297 6.335-1.352 9.084-1.649 2.748-4.27 4.69-7.38 5.467l-9.328 2.332c-5.741 1.434-11.607-1.472-13.939-6.915l-7.814-18.233c-.962-2.239-1.217-4.687-.738-7.078z"/><path d="m228.528 401.345 18.232 7.814c3.514 1.506 7.245 2.269 11.008 2.269 1.838 0 3.683-.182 5.514-.548l1.626-.325c7.582-1.517 14.034-5.95 18.169-12.484s5.379-14.263 3.503-21.764l-3.315-13.264c-2.513-10.053-10.319-17.86-20.373-20.374l-14.211-3.553c-7.257-1.814-14.783-.694-21.197 3.154-6.413 3.848-10.943 9.963-12.757 17.219l-2.332 9.328c-3.352 13.405 3.433 27.084 16.133 32.528zm-.612-28.647 2.332-9.328c1.606-6.42 8.14-10.335 14.552-8.731l14.211 3.553c4.309 1.077 7.654 4.423 8.731 8.731l3.316 13.264c.804 3.214.27 6.527-1.502 9.327s-4.537 4.7-7.787 5.35l-1.626.325c-2.389.479-4.838.224-7.08-.737l-18.232-7.814c-5.442-2.332-8.351-8.195-6.915-13.94z"/><path d="m199.286 295.743-2.829-2.829-11.312 11.314 2.828 2.828c4.679 4.679 4.679 12.292.001 16.97l-2.829 2.828 11.312 11.315 2.83-2.829c10.917-10.916 10.917-28.68-.001-39.597z"/><path d="m137.061 205.234-2.828 2.829 11.314 11.312 2.828-2.828c4.679-4.68 12.292-4.677 16.971 0l2.829 2.829 11.312-11.314-2.828-2.828c-10.919-10.918-28.681-10.918-39.598 0z"/><path d="m168.174 422.725c7.17 0 14.341-2.729 19.8-8.188l2.828-2.828-11.314-11.313-2.828 2.828c-4.678 4.679-12.293 4.679-16.971 0l-2.828-2.828-11.314 11.313 2.828 2.828c5.458 5.459 12.629 8.188 19.799 8.188z"/><path d="m171.488 256.616h16v16h-16z" transform="matrix(.707 -.707 .707 .707 -134.541 204.421)"/><path d="m177.146 364.093h16v16h-16z" transform="matrix(.707 -.707 .707 .707 -208.881 239.902)"/><path d="m301.592 352.787h16v16h-16z" transform="matrix(.707 -.707 .707 .707 -164.437 324.586)"/><path d="m290.277 239.643h16v16h-16z" transform="matrix(.707 -.707 .707 .707 -87.747 283.447)"/><path d="m75.319 318.854h16v16h-16z" transform="matrix(.707 -.707 .707 .707 -206.717 154.648)"/><path d="m512 128c0-53.832-24.598-96-56-96s-56 42.168-56 96c0 39.023 12.926 71.917 32 87.062v48.938h16v-40.929c.552.13 1.107.245 1.664.348.08.015.16.029.24.044.053.009.107.019.16.028.132.023.265.045.397.066.008.001.016.003.024.004 1.812.291 3.651.439 5.515.439s3.703-.149 5.515-.439c.008-.001.016-.003.024-.004.132-.021.264-.043.396-.066.054-.009.108-.019.163-.028.079-.014.158-.029.237-.043.557-.103 1.113-.218 1.666-.348v232.928c0 4.411-3.589 8-8 8s-8-3.589-8-8v-176h-16v176c0 13.233 10.767 24 24 24s24-10.767 24-24v-240.938c19.073-15.145 31.999-48.039 31.999-87.062zm-51.786 79.503c-2.803.638-5.625.638-8.429 0-8.217-1.926-16.307-9.381-22.704-21.109-8.435-15.466-13.081-36.204-13.081-58.394s4.646-42.928 13.082-58.394c7.489-13.731 17.301-21.606 26.918-21.606s19.429 7.875 26.918 21.606c8.436 15.466 13.082 36.204 13.082 58.394s-4.646 42.928-13.082 58.394c-6.397 11.728-14.487 19.183-22.704 21.109z"/><path d="m464 88h16v16h-16z"/><path d="m264 40h16v16h-16z"/><path d="m320 64h16v16h-16z"/><path d="m280 96h16v16h-16z"/><path d="m224 64h16v16h-16z"/><path d="m328 120h16v16h-16z"/></svg>