<?xml version="1.0" encoding="iso-8859-1"?>
<!-- Generator: Adobe Illustrator 18.0.0, SVG Export Plug-In . SVG Version: 6.00 Build 0)  -->
<!DOCTYPE svg PUBLIC "-//W3C//DTD SVG 1.1//EN" "http://www.w3.org/Graphics/SVG/1.1/DTD/svg11.dtd">
<svg version="1.1" id="Capa_1" xmlns="http://www.w3.org/2000/svg" xmlns:xlink="http://www.w3.org/1999/xlink" x="0px" y="0px"
	 viewBox="0 0 57.604 57.604" style="enable-background:new 0 0 57.604 57.604;" xml:space="preserve">
<g>
	<path d="M48.802,47.677l-0.018-1.064l-0.422-0.299l-5.599-2.215l2.683-2.741l0.355-0.266l-0.018-1.064l-0.613-0.434l-5.369-0.845
		V37.43c0-0.503-0.229-0.964-0.629-1.265c-0.115-0.087-0.241-0.152-0.371-0.204V18.705l0.62-0.527
		c0.996-0.847,1.718-1.538,2.146-2.056c0.394-0.475,0.375-1.18-0.041-1.64l-0.001-0.001c-0.198-0.219-0.428-0.405-0.701-0.471
		l0.064-0.081c0.443-0.563,0.537-1.319,0.246-1.973c-0.287-0.644-0.9-1.072-1.605-1.118c-0.35-0.021-0.68-0.021-0.98,0.005
		c0.045-1.063-0.402-1.69-0.784-2.027c-0.176-0.157-0.388-0.259-0.611-0.3c-2.283-3.715-6.836-5.913-12.353-5.913
		c-1.033,0-2.038-0.029-3.001-0.058l-0.057-0.001c-0.281-0.509-0.77-0.874-1.359-0.962C20.109,1.54,19.83,1.56,19.569,1.636
		c-0.021-0.062-0.045-0.124-0.068-0.185c-0.251-0.625-0.797-1.063-1.461-1.173c-0.676-0.111-1.347,0.134-1.793,0.654
		c-0.09,0.104-0.177,0.214-0.255,0.321c-0.036,0.049-0.078,0.072-0.128,0.072c-0.034,0-0.099-0.012-0.158-0.092
		c-0.396-0.531-0.89-0.947-1.36-1.141c-0.437-0.178-0.934-0.1-1.295,0.205c-0.394,0.331-0.854,0.945-0.839,2.011
		c-0.309-0.034-0.641-0.045-0.98-0.028c-0.702,0.028-1.327,0.44-1.63,1.076C9.294,4.005,9.37,4.764,9.845,5.334
		C9.588,5.478,9.353,5.658,9.15,5.872C8.72,6.322,8.684,7.028,9.067,7.513c0.36,0.457,0.951,1.059,1.734,1.777v26.672
		c-0.13,0.052-0.256,0.116-0.371,0.204c-0.399,0.301-0.629,0.762-0.629,1.265v12.849c0,4.039,3.285,7.325,7.324,7.325h15.352
		c3.644,0,6.666-2.677,7.224-6.167l8.448-3.318L48.802,47.677z M42.763,41.239l-2.011,2.056l-0.95-0.373v-2.148L42.763,41.239z
		 M12.802,35.903V9.899c0.142,0.041,0.286,0.083,0.432,0.128c0.104,0.032,0.206,0.062,0.311,0.096
		c0.204,0.066,0.414,0.142,0.624,0.217c0.118,0.042,0.233,0.08,0.352,0.125c0.199,0.075,0.402,0.162,0.604,0.246
		c0.348,0.145,0.698,0.302,1.05,0.474c0.082,0.04,0.163,0.075,0.245,0.117c0.241,0.123,0.481,0.257,0.721,0.393
		c0.078,0.044,0.156,0.085,0.233,0.131c0.247,0.146,0.491,0.302,0.734,0.464c0.065,0.043,0.13,0.085,0.195,0.13
		c0.251,0.173,0.499,0.357,0.743,0.548c0.049,0.038,0.098,0.077,0.146,0.116c0.254,0.205,0.503,0.421,0.746,0.648
		c0.029,0.027,0.057,0.055,0.086,0.083c0.188,0.18,0.368,0.372,0.547,0.565c0.135,0.146,0.266,0.295,0.392,0.447
		c0.124,0.148,0.245,0.299,0.363,0.454c0.147,0.196,0.288,0.397,0.422,0.601c0.076,0.115,0.152,0.229,0.225,0.348
		c0.17,0.28,0.329,0.566,0.475,0.861c0.028,0.055,0.057,0.109,0.084,0.165c0.161,0.337,0.306,0.685,0.437,1.041
		c0.053,0.144,0.115,0.283,0.162,0.429c0.025,0.077,0.05,0.154,0.074,0.232c0.105,0.347,0.194,0.702,0.272,1.063
		c0.019,0.089,0.041,0.177,0.058,0.268c0.014,0.071,0.021,0.148,0.033,0.22c0.051,0.29,0.096,0.584,0.129,0.883
		c0.01,0.093,0.026,0.184,0.034,0.278c0.043,0.466,0.07,0.946,0.07,1.447c0,0.037,0.002,0.077,0.005,0.119
		c0,0.006,0.001,0.012,0.001,0.018c0.001,0.011,0.004,0.025,0.005,0.037c0.003,0.025,0.007,0.052,0.011,0.08
		c0.002,0.015,0.004,0.029,0.007,0.045c0.002,0.013,0.006,0.029,0.009,0.042c0.005,0.024,0.011,0.05,0.017,0.076
		c0.006,0.028,0.012,0.054,0.019,0.084c0.004,0.017,0.009,0.035,0.014,0.052c0.005,0.021,0.013,0.046,0.019,0.068
		c0.012,0.044,0.025,0.088,0.04,0.138c0.012,0.04,0.028,0.088,0.042,0.132c0.012,0.037,0.022,0.071,0.035,0.111
		c0.008,0.025,0.018,0.054,0.027,0.081c0.015,0.045,0.032,0.095,0.049,0.144c0.015,0.042,0.03,0.085,0.046,0.13
		c0.014,0.039,0.029,0.081,0.043,0.122c0.019,0.054,0.038,0.107,0.059,0.165c0.002,0.005,0.003,0.009,0.005,0.013l0.001,0.003
		c0.015,0.042,0.034,0.093,0.051,0.137c0.018,0.048,0.035,0.095,0.054,0.146c0.058,0.157,0.124,0.331,0.195,0.517
		c-0.396,1.22-0.631,2.531-0.715,3.911c-0.028,0.406-0.04,0.781-0.04,1.112c0,0.697-0.034,1.369-0.093,2.021
		c-0.019,0.211-0.056,0.408-0.082,0.614c-0.053,0.432-0.108,0.862-0.188,1.273c-0.045,0.232-0.106,0.45-0.16,0.675
		c-0.087,0.365-0.177,0.727-0.286,1.073c-0.071,0.224-0.155,0.438-0.235,0.654c-0.077,0.208-0.163,0.408-0.249,0.608
		c-0.13-0.005-0.261-0.006-0.391-0.012C18.963,37.313,15.836,36.781,12.802,35.903z M25.559,17.514
		c0.167-0.013,0.334-0.015,0.502,0.001c0.022,0.002,0.044,0.003,0.067,0.005c0.411,0.049,0.818,0.182,1.198,0.408l0.084,0.05
		c0.139,0.09,0.272,0.188,0.393,0.298c0.046,0.042,0.086,0.088,0.129,0.132c0.095,0.097,0.184,0.2,0.264,0.309
		c0.041,0.055,0.08,0.111,0.117,0.169c0.074,0.116,0.138,0.239,0.196,0.365c0.024,0.053,0.052,0.104,0.073,0.158
		c0.007,0.019,0.01,0.041,0.017,0.06c-0.037,0.033-0.07,0.068-0.107,0.102c-0.13,0.12-0.257,0.241-0.381,0.363
		c-0.216,0.209-0.423,0.424-0.624,0.644c-0.644,0.703-1.214,1.45-1.69,2.251c-0.008-0.5-0.04-0.988-0.087-1.469
		c-0.016-0.166-0.042-0.323-0.062-0.484c-0.044-0.344-0.096-0.684-0.161-1.017c-0.044-0.229-0.09-0.456-0.142-0.676
		c-0.052-0.216-0.114-0.427-0.175-0.638c-0.088-0.307-0.176-0.613-0.28-0.903c0.175-0.056,0.355-0.094,0.537-0.116
		C25.473,17.519,25.516,17.518,25.559,17.514z M27.539,13.28l0.053,0.136c0.069,0.178,0.12,0.357,0.155,0.534
		c0.033,0.177,0.055,0.358,0.055,0.545c0,0.243-0.034,0.464-0.083,0.671c-0.018,0.074-0.045,0.139-0.067,0.208
		c-0.04,0.124-0.082,0.246-0.133,0.354c-0.01,0.022-0.022,0.041-0.033,0.062c-0.528-0.189-1.094-0.295-1.683-0.295
		c-0.286,0-0.568,0.032-0.846,0.08c-0.078,0.013-0.154,0.035-0.232,0.052c-0.182,0.041-0.361,0.088-0.538,0.149
		c-0.038,0.013-0.078,0.018-0.116,0.032c-0.426-0.792-0.911-1.517-1.45-2.172c0.201-0.221,0.393-0.449,0.58-0.678
		c0.059-0.073,0.115-0.143,0.172-0.215c0.028-0.035,0.057-0.071,0.085-0.106c0.03-0.038,0.06-0.074,0.09-0.112
		c0.076-0.097,0.145-0.191,0.218-0.286c0.051-0.067,0.1-0.131,0.149-0.197c0.094-0.125,0.181-0.243,0.267-0.361
		c0.031-0.042,0.071-0.094,0.101-0.135c0.179-0.035,0.351-0.053,0.52-0.053C26.023,11.495,27.071,12.231,27.539,13.28z
		 M24.663,37.589c0.028-0.077,0.047-0.161,0.075-0.238c0.072-0.204,0.131-0.416,0.196-0.625c0.125-0.405,0.238-0.818,0.335-1.243
		c0.053-0.23,0.102-0.463,0.147-0.699c0.085-0.45,0.152-0.913,0.208-1.384c0.026-0.217,0.058-0.429,0.078-0.65
		c0.062-0.696,0.101-1.407,0.101-2.145c0-0.49,0.026-0.959,0.067-1.416c0.013-0.145,0.034-0.286,0.051-0.429
		c0.038-0.317,0.081-0.629,0.138-0.929c0.026-0.138,0.055-0.275,0.085-0.411c0.069-0.313,0.146-0.617,0.234-0.912
		c0.029-0.099,0.058-0.199,0.09-0.297c0.077-0.236,0.168-0.459,0.256-0.684c0.106-0.269,0.221-0.533,0.346-0.792
		c0.016-0.033,0.033-0.065,0.049-0.098c0.103-0.209,0.215-0.413,0.33-0.616c0.133-0.231,0.272-0.458,0.421-0.68
		c0.122-0.184,0.246-0.366,0.379-0.543c0.214-0.283,0.445-0.556,0.687-0.823c0.073-0.081,0.14-0.164,0.215-0.243
		c0.039-0.041,0.077-0.082,0.117-0.122c0.36-0.366,0.739-0.721,1.153-1.053l0,0c0.211-0.169,0.425-0.33,0.642-0.485
		c0.035-0.025,0.068-0.052,0.104-0.077c0.235-0.165,0.474-0.32,0.714-0.469c0.039-0.024,0.077-0.05,0.115-0.073
		c0.239-0.146,0.48-0.284,0.722-0.416c0.041-0.022,0.081-0.045,0.122-0.067c0.24-0.128,0.48-0.249,0.72-0.364
		c0.044-0.021,0.089-0.042,0.133-0.063c0.237-0.111,0.473-0.216,0.707-0.315c0.049-0.021,0.098-0.04,0.147-0.06
		c0.229-0.094,0.457-0.185,0.682-0.268c0.055-0.02,0.11-0.039,0.165-0.059c0.218-0.079,0.435-0.156,0.646-0.225
		c0.062-0.02,0.121-0.037,0.182-0.056c0.196-0.062,0.392-0.124,0.58-0.178v1.279v17.244c-3.013,0.871-6.094,1.401-9.208,1.603
		C26.619,37.556,25.643,37.591,24.663,37.589z M38.657,12.843c0.168-0.018,0.354-0.025,0.557-0.017
		c-0.307,0.418-0.431,0.942-0.34,1.456c0.077,0.437,0.3,0.832,0.629,1.128c-0.185,0.182-0.414,0.398-0.701,0.656v-1.233
		l-1.224,0.281c-0.286,0.066-0.591,0.143-0.906,0.228c-0.239,0.063-0.471,0.13-0.701,0.198c-0.016,0.005-0.031,0.009-0.046,0.014
		c-2.303,0.685-4.18,1.591-5.699,2.634c-0.004-0.009-0.011-0.016-0.016-0.025c-0.018-0.033-0.036-0.066-0.054-0.098
		c-0.073-0.133-0.161-0.253-0.245-0.378c-0.051-0.075-0.093-0.155-0.148-0.227c-0.021-0.027-0.045-0.052-0.066-0.079
		c-0.102-0.129-0.216-0.245-0.33-0.362c-0.056-0.058-0.104-0.124-0.163-0.179c0.112-0.205,0.204-0.416,0.285-0.632
		c0.003-0.009,0.005-0.018,0.008-0.026c0.088-0.24,0.154-0.486,0.203-0.737c0.01-0.052,0.021-0.103,0.029-0.155
		c0.043-0.261,0.072-0.525,0.072-0.795c0-0.255-0.021-0.511-0.063-0.767c0.397-0.268,0.688-0.681,0.788-1.18
		c0.033-0.17,0.082-0.351,0.146-0.538c0.234,0.31,0.559,0.53,0.966,0.656l1.346,0.416l-0.051-1.407
		c-0.014-0.4,0.06-0.723,0.141-0.949c0.031,0.041,0.062,0.083,0.092,0.126c0.402,0.568,1.026,0.903,1.713,0.92
		c0.154-0.005,0.311-0.025,0.467-0.058c0.074-0.016,0.144-0.044,0.217-0.067c0.085-0.026,0.169-0.049,0.251-0.085
		c0.061-0.027,0.117-0.063,0.176-0.095c0.088-0.047,0.175-0.095,0.256-0.155c0.053-0.039,0.1-0.086,0.15-0.13
		c0.053-0.047,0.112-0.086,0.16-0.14c0.037,0.489,0.251,0.946,0.604,1.284C37.56,12.71,38.11,12.897,38.657,12.843z M35.343,9.385
		c-0.09,0.096-0.177,0.196-0.258,0.301c-0.059,0.075-0.122,0.087-0.156,0.087c-0.027-0.014-0.094-0.024-0.129-0.074
		c-0.079-0.112-0.162-0.223-0.246-0.325c-0.435-0.533-1.1-0.789-1.779-0.701c-0.667,0.094-1.223,0.52-1.488,1.139
		c-0.025,0.06-0.05,0.119-0.072,0.18c-0.208-0.065-0.431-0.084-0.655-0.075c0.75-0.546,1.243-1.424,1.243-2.42c0-0.553-0.447-1-1-1
		s-1,0.447-1,1c0,0.552-0.448,1-1,1c-0.553,0-1,0.447-1,1s0.447,1,1,1c0.183,0,0.36-0.022,0.534-0.054
		c-0.199,0.191-0.368,0.416-0.468,0.684c-0.046,0.12-0.068,0.233-0.106,0.352c-0.74-0.969-1.814-1.663-3.06-1.891
		c0.083-0.262,0.121-0.54,0.084-0.824c-0.089-0.681-0.52-1.251-1.15-1.528c-0.122-0.054-0.247-0.103-0.38-0.15
		c-0.058-0.021-0.091-0.053-0.105-0.101c-0.01-0.032-0.018-0.098,0.041-0.177c0.289-0.391,0.507-0.828,0.619-1.233
		c0.042,1.618,1.364,2.923,2.992,2.923c0.553,0,1-0.447,1-1s-0.447-1-1-1c-0.552,0-1-0.448-1-1c0-0.348-0.188-0.639-0.457-0.818
		C30.354,5.023,33.607,6.713,35.343,9.385z M11.805,5.74c0.105-0.521-0.011-1.059-0.348-1.465c0.219-0.007,0.416,0.007,0.602,0.029
		c0.541,0.064,1.097-0.105,1.507-0.478c0.363-0.329,0.588-0.782,0.638-1.271c0.42,0.49,1.016,0.77,1.657,0.77
		c0.001,0,0.002,0,0.003,0c0.686,0,1.316-0.319,1.735-0.883c0.03-0.04,0.06-0.079,0.091-0.118c0.075,0.229,0.141,0.554,0.117,0.953
		l-0.085,1.402l1.354-0.38c0.42-0.118,0.756-0.338,0.971-0.674c0.065,0.208,0.115,0.403,0.146,0.583
		c0.094,0.543,0.419,1.018,0.894,1.302c0.422,0.252,0.925,0.336,1.401,0.24c-0.347,0.547-0.439,1.198-0.253,1.813
		c0.2,0.656,0.69,1.167,1.341,1.399c0.054,0.02,0.107,0.04,0.159,0.061c-0.184,0.171-0.382,0.417-0.652,0.777l-0.001,0L23.069,9.82
		c-0.099,0.133-0.207,0.28-0.329,0.447c-0.124,0.168-0.261,0.355-0.402,0.544c-0.042,0.055-0.085,0.112-0.128,0.169
		c-0.119,0.158-0.245,0.319-0.373,0.481c-0.044,0.055-0.086,0.11-0.131,0.165c-0.152,0.188-0.31,0.373-0.469,0.552
		c-2.766-2.533-6.241-3.821-8.821-4.456c-0.122-0.03-0.245-0.036-0.366-0.032c-0.013,0-0.028-0.004-0.041-0.003
		c-0.364-0.337-0.645-0.612-0.859-0.836C11.485,6.565,11.718,6.175,11.805,5.74z M32.477,55.604H17.126
		c-2.936,0-5.324-2.389-5.324-5.325V37.978c3.11,0.84,6.485,1.349,9.919,1.542l1.399,0.052c0.001,0,0.003,0,0.004,0l0.646,0.024
		l0.006-0.012c0.037,0.001,0.073,0.001,0.11,0.002c0.588,0.01,1.172,0.011,1.76,0.002c0.417-0.008,0.834-0.019,1.251-0.038
		c3.772-0.144,7.498-0.652,10.905-1.572v0.456v3.703v2.148v5.993C37.802,53.215,35.413,55.604,32.477,55.604z M39.802,49.249V45.07
		l1.452,0.57l0,0l3.869,1.519L39.802,49.249z"/>
	<path d="M35.802,40.604c-0.553,0-1,0.447-1,1c0,4.879-8.243,9-18,9c-0.553,0-1,0.447-1,1s0.447,1,1,1c11.215,0,20-4.832,20-11
		C36.802,41.051,36.354,40.604,35.802,40.604z"/>
</g>
<g>
</g>
<g>
</g>
<g>
</g>
<g>
</g>
<g>
</g>
<g>
</g>
<g>
</g>
<g>
</g>
<g>
</g>
<g>
</g>
<g>
</g>
<g>
</g>
<g>
</g>
<g>
</g>
<g>
</g>
</svg>
